<mxfile host="Electron" agent="Mozilla/5.0 (X11; Linux x86_64) AppleWebKit/537.36 (KHTML, like Gecko) draw.io/28.2.5 Chrome/138.0.7204.251 Electron/37.6.1 Safari/537.36" version="28.2.5">
  <diagram name="Page-1" id="nKIQ3pjiSAN6Kpks671W">
    <mxGraphModel dx="2946" dy="1132" grid="0" gridSize="10" guides="1" tooltips="1" connect="1" arrows="1" fold="1" page="0" pageScale="1" pageWidth="850" pageHeight="1100" math="0" shadow="0">
      <root>
        <mxCell id="0" />
        <mxCell id="1" parent="0" />
        <mxCell id="wd65NpNhNlbv7quhVMK_-1" value="API Gateway/Orchestrator&lt;div&gt;outward facing&lt;/div&gt;" style="rounded=1;whiteSpace=wrap;html=1;fillColor=#ffe6cc;strokeColor=#d79b00;strokeWidth=2;verticalAlign=top;" parent="1" vertex="1">
          <mxGeometry x="190" y="320.5" width="170" height="100" as="geometry" />
        </mxCell>
        <mxCell id="MYnqMJr1DU9AEaX-lrMK-1" value="" style="image;sketch=0;aspect=fixed;html=1;points=[];align=center;fontSize=12;image=img/lib/mscae/Docker.svg;" parent="1" vertex="1">
          <mxGeometry x="200" y="369" width="50" height="41" as="geometry" />
        </mxCell>
        <mxCell id="wd65NpNhNlbv7quhVMK_-43" value="Employee" style="shape=umlActor;verticalLabelPosition=bottom;verticalAlign=top;html=1;outlineConnect=0;" parent="1" vertex="1">
          <mxGeometry x="90" y="930" width="30" height="60" as="geometry" />
        </mxCell>
        <mxCell id="wd65NpNhNlbv7quhVMK_-44" value="removeFromCatalog" style="html=1;verticalAlign=bottom;startArrow=oval;startFill=1;endArrow=block;startSize=8;curved=0;rounded=0;" parent="1" target="wd65NpNhNlbv7quhVMK_-46" edge="1">
          <mxGeometry width="60" relative="1" as="geometry">
            <mxPoint x="160" y="959.5" as="sourcePoint" />
            <mxPoint x="320" y="960" as="targetPoint" />
          </mxGeometry>
        </mxCell>
        <mxCell id="wd65NpNhNlbv7quhVMK_-45" value=":BookRent.Gateway" style="html=1;whiteSpace=wrap;" parent="1" vertex="1">
          <mxGeometry x="290" y="830" width="130" height="70" as="geometry" />
        </mxCell>
        <mxCell id="wd65NpNhNlbv7quhVMK_-46" value="" style="html=1;points=[[0,0,0,0,5],[0,1,0,0,-5],[1,0,0,0,5],[1,1,0,0,-5]];perimeter=orthogonalPerimeter;outlineConnect=0;targetShapes=umlLifeline;portConstraint=eastwest;newEdgeStyle={&quot;curved&quot;:0,&quot;rounded&quot;:0};" parent="1" vertex="1">
          <mxGeometry x="350" y="960" width="10" height="220" as="geometry" />
        </mxCell>
        <mxCell id="wd65NpNhNlbv7quhVMK_-48" value="" style="endArrow=none;dashed=1;html=1;rounded=0;" parent="1" source="wd65NpNhNlbv7quhVMK_-45" target="wd65NpNhNlbv7quhVMK_-46" edge="1">
          <mxGeometry width="50" height="50" relative="1" as="geometry">
            <mxPoint x="400" y="890" as="sourcePoint" />
            <mxPoint x="450" y="840" as="targetPoint" />
          </mxGeometry>
        </mxCell>
        <mxCell id="wd65NpNhNlbv7quhVMK_-49" value=":BookRent.Identity" style="html=1;whiteSpace=wrap;" parent="1" vertex="1">
          <mxGeometry x="490" y="830" width="130" height="70" as="geometry" />
        </mxCell>
        <mxCell id="wd65NpNhNlbv7quhVMK_-50" value=":BookRent.Renting" style="html=1;whiteSpace=wrap;" parent="1" vertex="1">
          <mxGeometry x="690" y="830" width="130" height="70" as="geometry" />
        </mxCell>
        <mxCell id="wd65NpNhNlbv7quhVMK_-51" value=":BookRent.Catalog" style="html=1;whiteSpace=wrap;" parent="1" vertex="1">
          <mxGeometry x="890" y="830" width="130" height="70" as="geometry" />
        </mxCell>
        <mxCell id="wd65NpNhNlbv7quhVMK_-52" value="" style="endArrow=none;dashed=1;html=1;rounded=0;" parent="1" source="wd65NpNhNlbv7quhVMK_-49" target="wd65NpNhNlbv7quhVMK_-54" edge="1">
          <mxGeometry width="50" height="50" relative="1" as="geometry">
            <mxPoint x="540" y="990" as="sourcePoint" />
            <mxPoint x="560" y="980" as="targetPoint" />
          </mxGeometry>
        </mxCell>
        <mxCell id="wd65NpNhNlbv7quhVMK_-53" value="checkUserPermission" style="html=1;verticalAlign=bottom;startArrow=none;startFill=0;endArrow=block;startSize=8;curved=0;rounded=0;" parent="1" edge="1">
          <mxGeometry width="60" relative="1" as="geometry">
            <mxPoint x="360" y="1000" as="sourcePoint" />
            <mxPoint x="550" y="1000" as="targetPoint" />
          </mxGeometry>
        </mxCell>
        <mxCell id="wd65NpNhNlbv7quhVMK_-54" value="" style="html=1;points=[[0,0,0,0,5],[0,1,0,0,-5],[1,0,0,0,5],[1,1,0,0,-5]];perimeter=orthogonalPerimeter;outlineConnect=0;targetShapes=umlLifeline;portConstraint=eastwest;newEdgeStyle={&quot;curved&quot;:0,&quot;rounded&quot;:0};" parent="1" vertex="1">
          <mxGeometry x="550" y="1000" width="10" height="40" as="geometry" />
        </mxCell>
        <mxCell id="wd65NpNhNlbv7quhVMK_-55" value="" style="endArrow=classic;html=1;rounded=0;dashed=1;exitX=0;exitY=1;exitDx=0;exitDy=-5;exitPerimeter=0;" parent="1" source="wd65NpNhNlbv7quhVMK_-54" target="wd65NpNhNlbv7quhVMK_-46" edge="1">
          <mxGeometry width="50" height="50" relative="1" as="geometry">
            <mxPoint x="400" y="1020" as="sourcePoint" />
            <mxPoint x="450" y="970" as="targetPoint" />
          </mxGeometry>
        </mxCell>
        <mxCell id="wd65NpNhNlbv7quhVMK_-56" value="isPermitted" style="text;html=1;align=center;verticalAlign=middle;resizable=0;points=[];autosize=1;strokeColor=none;fillColor=none;" parent="1" vertex="1">
          <mxGeometry x="425" y="1010" width="80" height="30" as="geometry" />
        </mxCell>
        <mxCell id="wd65NpNhNlbv7quhVMK_-57" value="" style="endArrow=none;dashed=1;html=1;rounded=0;exitX=0.555;exitY=0.973;exitDx=0;exitDy=0;exitPerimeter=0;" parent="1" source="wd65NpNhNlbv7quhVMK_-50" target="wd65NpNhNlbv7quhVMK_-58" edge="1">
          <mxGeometry width="50" height="50" relative="1" as="geometry">
            <mxPoint x="580" y="970" as="sourcePoint" />
            <mxPoint x="580" y="1070" as="targetPoint" />
          </mxGeometry>
        </mxCell>
        <mxCell id="wd65NpNhNlbv7quhVMK_-58" value="" style="html=1;points=[[0,0,0,0,5],[0,1,0,0,-5],[1,0,0,0,5],[1,1,0,0,-5]];perimeter=orthogonalPerimeter;outlineConnect=0;targetShapes=umlLifeline;portConstraint=eastwest;newEdgeStyle={&quot;curved&quot;:0,&quot;rounded&quot;:0};" parent="1" vertex="1">
          <mxGeometry x="757" y="1070" width="10" height="40" as="geometry" />
        </mxCell>
        <mxCell id="wd65NpNhNlbv7quhVMK_-59" value="areAllCopiesRetunred" style="html=1;verticalAlign=bottom;startArrow=none;startFill=0;endArrow=block;startSize=8;curved=0;rounded=0;entryX=0;entryY=0;entryDx=0;entryDy=5;entryPerimeter=0;" parent="1" source="wd65NpNhNlbv7quhVMK_-46" target="wd65NpNhNlbv7quhVMK_-58" edge="1">
          <mxGeometry width="60" relative="1" as="geometry">
            <mxPoint x="590" y="1040" as="sourcePoint" />
            <mxPoint x="780" y="1041" as="targetPoint" />
          </mxGeometry>
        </mxCell>
        <mxCell id="wd65NpNhNlbv7quhVMK_-60" value="" style="endArrow=classic;html=1;rounded=0;dashed=1;exitX=0.3;exitY=1;exitDx=0;exitDy=0;exitPerimeter=0;" parent="1" source="wd65NpNhNlbv7quhVMK_-58" target="wd65NpNhNlbv7quhVMK_-46" edge="1">
          <mxGeometry width="50" height="50" relative="1" as="geometry">
            <mxPoint x="720" y="1040" as="sourcePoint" />
            <mxPoint x="530" y="1040" as="targetPoint" />
          </mxGeometry>
        </mxCell>
        <mxCell id="wd65NpNhNlbv7quhVMK_-61" value="no" style="text;html=1;align=center;verticalAlign=middle;resizable=0;points=[];autosize=1;strokeColor=none;fillColor=none;" parent="1" vertex="1">
          <mxGeometry x="535" y="1085" width="40" height="30" as="geometry" />
        </mxCell>
        <mxCell id="wd65NpNhNlbv7quhVMK_-62" value="" style="endArrow=none;dashed=1;html=1;rounded=0;" parent="1" source="wd65NpNhNlbv7quhVMK_-51" target="wd65NpNhNlbv7quhVMK_-63" edge="1">
          <mxGeometry width="50" height="50" relative="1" as="geometry">
            <mxPoint x="810" y="940" as="sourcePoint" />
            <mxPoint x="810" y="1112" as="targetPoint" />
          </mxGeometry>
        </mxCell>
        <mxCell id="wd65NpNhNlbv7quhVMK_-63" value="" style="html=1;points=[[0,0,0,0,5],[0,1,0,0,-5],[1,0,0,0,5],[1,1,0,0,-5]];perimeter=orthogonalPerimeter;outlineConnect=0;targetShapes=umlLifeline;portConstraint=eastwest;newEdgeStyle={&quot;curved&quot;:0,&quot;rounded&quot;:0};" parent="1" vertex="1">
          <mxGeometry x="950" y="1140" width="10" height="40" as="geometry" />
        </mxCell>
        <mxCell id="wd65NpNhNlbv7quhVMK_-64" value="setBookHidden" style="html=1;verticalAlign=bottom;startArrow=none;startFill=0;endArrow=block;startSize=8;curved=0;rounded=0;" parent="1" target="wd65NpNhNlbv7quhVMK_-63" edge="1">
          <mxGeometry width="60" relative="1" as="geometry">
            <mxPoint x="360" y="1140" as="sourcePoint" />
            <mxPoint x="757" y="1140" as="targetPoint" />
          </mxGeometry>
        </mxCell>
        <mxCell id="wd65NpNhNlbv7quhVMK_-66" value="" style="endArrow=classic;html=1;rounded=0;dashed=1;" parent="1" edge="1">
          <mxGeometry width="50" height="50" relative="1" as="geometry">
            <mxPoint x="950" y="1179.43" as="sourcePoint" />
            <mxPoint x="360" y="1179.43" as="targetPoint" />
          </mxGeometry>
        </mxCell>
        <mxCell id="wd65NpNhNlbv7quhVMK_-67" value="response" style="text;html=1;align=center;verticalAlign=middle;resizable=0;points=[];autosize=1;strokeColor=none;fillColor=none;" parent="1" vertex="1">
          <mxGeometry x="605" y="1160" width="70" height="30" as="geometry" />
        </mxCell>
        <mxCell id="wd65NpNhNlbv7quhVMK_-68" value="" style="endArrow=classic;html=1;rounded=0;dashed=1;" parent="1" source="wd65NpNhNlbv7quhVMK_-46" edge="1">
          <mxGeometry width="50" height="50" relative="1" as="geometry">
            <mxPoint x="780" y="1250" as="sourcePoint" />
            <mxPoint x="160" y="1180" as="targetPoint" />
          </mxGeometry>
        </mxCell>
        <mxCell id="wd65NpNhNlbv7quhVMK_-69" value="response" style="text;html=1;align=center;verticalAlign=middle;resizable=0;points=[];autosize=1;strokeColor=none;fillColor=none;" parent="1" vertex="1">
          <mxGeometry x="210" y="1160" width="70" height="30" as="geometry" />
        </mxCell>
        <mxCell id="zBMRLFIllRJ43J9soZft-6" value="" style="group" vertex="1" connectable="0" parent="1">
          <mxGeometry x="490" y="10" width="363.45000000000005" height="140" as="geometry" />
        </mxCell>
        <mxCell id="zBMRLFIllRJ43J9soZft-2" value="catalog-net" style="rounded=1;whiteSpace=wrap;html=1;fillColor=#d5e8d4;strokeColor=#82b366;strokeWidth=2;verticalAlign=top;" vertex="1" parent="zBMRLFIllRJ43J9soZft-6">
          <mxGeometry width="363.45" height="140" as="geometry" />
        </mxCell>
        <mxCell id="wd65NpNhNlbv7quhVMK_-8" value="" style="group" parent="zBMRLFIllRJ43J9soZft-6" vertex="1" connectable="0">
          <mxGeometry x="30" y="25" width="310" height="115" as="geometry" />
        </mxCell>
        <mxCell id="wd65NpNhNlbv7quhVMK_-6" value="CatalogService" style="rounded=1;whiteSpace=wrap;html=1;fillColor=#dae8fc;strokeColor=#6c8ebf;strokeWidth=2;verticalAlign=top;" parent="wd65NpNhNlbv7quhVMK_-8" vertex="1">
          <mxGeometry width="181.72413793103448" height="104.54545454545455" as="geometry" />
        </mxCell>
        <mxCell id="wd65NpNhNlbv7quhVMK_-7" value="" style="image;sketch=0;aspect=fixed;html=1;points=[];align=center;fontSize=12;image=img/lib/mscae/Docker.svg;" parent="wd65NpNhNlbv7quhVMK_-8" vertex="1">
          <mxGeometry x="10.689655172413792" y="52.27272727272727" width="51.85676392572943" height="42.522546419098134" as="geometry" />
        </mxCell>
        <mxCell id="wd65NpNhNlbv7quhVMK_-19" value="" style="group" parent="wd65NpNhNlbv7quhVMK_-8" vertex="1" connectable="0">
          <mxGeometry x="227" y="-5.0000000000000036" width="80" height="120" as="geometry" />
        </mxCell>
        <mxCell id="wd65NpNhNlbv7quhVMK_-5" value="" style="group" parent="wd65NpNhNlbv7quhVMK_-19" vertex="1" connectable="0">
          <mxGeometry x="5" width="70" height="81" as="geometry" />
        </mxCell>
        <mxCell id="wd65NpNhNlbv7quhVMK_-2" value="" style="image;html=1;image=img/lib/clip_art/computers/Database_128x128.png" parent="wd65NpNhNlbv7quhVMK_-5" vertex="1">
          <mxGeometry width="50" height="60" as="geometry" />
        </mxCell>
        <mxCell id="wd65NpNhNlbv7quhVMK_-3" value="" style="image;sketch=0;aspect=fixed;html=1;points=[];align=center;fontSize=12;image=img/lib/mscae/Docker.svg;" parent="wd65NpNhNlbv7quhVMK_-5" vertex="1">
          <mxGeometry x="20" y="40" width="50" height="41" as="geometry" />
        </mxCell>
        <mxCell id="wd65NpNhNlbv7quhVMK_-18" value="CatalogDb" style="text;html=1;align=center;verticalAlign=middle;resizable=0;points=[];autosize=1;strokeColor=none;fillColor=none;" parent="wd65NpNhNlbv7quhVMK_-19" vertex="1">
          <mxGeometry y="90" width="80" height="30" as="geometry" />
        </mxCell>
        <mxCell id="wd65NpNhNlbv7quhVMK_-42" value="" style="endArrow=classic;startArrow=classic;html=1;rounded=0;strokeWidth=2;" parent="wd65NpNhNlbv7quhVMK_-8" source="wd65NpNhNlbv7quhVMK_-6" target="wd65NpNhNlbv7quhVMK_-3" edge="1">
          <mxGeometry width="50" height="50" relative="1" as="geometry">
            <mxPoint x="280" y="210" as="sourcePoint" />
            <mxPoint x="345" y="210" as="targetPoint" />
          </mxGeometry>
        </mxCell>
        <mxCell id="zBMRLFIllRJ43J9soZft-7" value="" style="group" vertex="1" connectable="0" parent="1">
          <mxGeometry x="487" y="210" width="363.45000000000005" height="140" as="geometry" />
        </mxCell>
        <mxCell id="zBMRLFIllRJ43J9soZft-8" value="renting-net" style="rounded=1;whiteSpace=wrap;html=1;fillColor=#d5e8d4;strokeColor=#82b366;strokeWidth=2;verticalAlign=top;" vertex="1" parent="zBMRLFIllRJ43J9soZft-7">
          <mxGeometry width="363.45" height="140" as="geometry" />
        </mxCell>
        <mxCell id="zBMRLFIllRJ43J9soZft-9" value="" style="group" vertex="1" connectable="0" parent="zBMRLFIllRJ43J9soZft-7">
          <mxGeometry x="18" y="25" width="310" height="115" as="geometry" />
        </mxCell>
        <mxCell id="zBMRLFIllRJ43J9soZft-10" value="RentingService" style="rounded=1;whiteSpace=wrap;html=1;fillColor=#dae8fc;strokeColor=#6c8ebf;strokeWidth=2;verticalAlign=top;" vertex="1" parent="zBMRLFIllRJ43J9soZft-9">
          <mxGeometry width="181.72413793103448" height="104.54545454545455" as="geometry" />
        </mxCell>
        <mxCell id="zBMRLFIllRJ43J9soZft-11" value="" style="image;sketch=0;aspect=fixed;html=1;points=[];align=center;fontSize=12;image=img/lib/mscae/Docker.svg;" vertex="1" parent="zBMRLFIllRJ43J9soZft-9">
          <mxGeometry x="10.689655172413792" y="52.27272727272727" width="51.85676392572943" height="42.522546419098134" as="geometry" />
        </mxCell>
        <mxCell id="zBMRLFIllRJ43J9soZft-12" value="" style="group" vertex="1" connectable="0" parent="zBMRLFIllRJ43J9soZft-9">
          <mxGeometry x="227" y="-5.0000000000000036" width="80" height="120" as="geometry" />
        </mxCell>
        <mxCell id="zBMRLFIllRJ43J9soZft-13" value="" style="group" vertex="1" connectable="0" parent="zBMRLFIllRJ43J9soZft-12">
          <mxGeometry x="5" width="70" height="81" as="geometry" />
        </mxCell>
        <mxCell id="zBMRLFIllRJ43J9soZft-14" value="" style="image;html=1;image=img/lib/clip_art/computers/Database_128x128.png" vertex="1" parent="zBMRLFIllRJ43J9soZft-13">
          <mxGeometry width="50" height="60" as="geometry" />
        </mxCell>
        <mxCell id="zBMRLFIllRJ43J9soZft-15" value="" style="image;sketch=0;aspect=fixed;html=1;points=[];align=center;fontSize=12;image=img/lib/mscae/Docker.svg;" vertex="1" parent="zBMRLFIllRJ43J9soZft-13">
          <mxGeometry x="20" y="40" width="50" height="41" as="geometry" />
        </mxCell>
        <mxCell id="zBMRLFIllRJ43J9soZft-16" value="RentingDb" style="text;html=1;align=center;verticalAlign=middle;resizable=0;points=[];autosize=1;strokeColor=none;fillColor=none;" vertex="1" parent="zBMRLFIllRJ43J9soZft-12">
          <mxGeometry y="90" width="80" height="30" as="geometry" />
        </mxCell>
        <mxCell id="zBMRLFIllRJ43J9soZft-17" value="" style="endArrow=classic;startArrow=classic;html=1;rounded=0;strokeWidth=2;" edge="1" parent="zBMRLFIllRJ43J9soZft-9" source="zBMRLFIllRJ43J9soZft-10" target="zBMRLFIllRJ43J9soZft-15">
          <mxGeometry width="50" height="50" relative="1" as="geometry">
            <mxPoint x="280" y="210" as="sourcePoint" />
            <mxPoint x="345" y="210" as="targetPoint" />
          </mxGeometry>
        </mxCell>
        <mxCell id="zBMRLFIllRJ43J9soZft-29" value="" style="group" vertex="1" connectable="0" parent="1">
          <mxGeometry x="487" y="610" width="363.45000000000005" height="140" as="geometry" />
        </mxCell>
        <mxCell id="zBMRLFIllRJ43J9soZft-30" value="identity-net" style="rounded=1;whiteSpace=wrap;html=1;fillColor=#d5e8d4;strokeColor=#82b366;strokeWidth=2;verticalAlign=top;" vertex="1" parent="zBMRLFIllRJ43J9soZft-29">
          <mxGeometry width="363.45" height="140" as="geometry" />
        </mxCell>
        <mxCell id="zBMRLFIllRJ43J9soZft-31" value="" style="group" vertex="1" connectable="0" parent="zBMRLFIllRJ43J9soZft-29">
          <mxGeometry x="18" y="25" width="310" height="115" as="geometry" />
        </mxCell>
        <mxCell id="zBMRLFIllRJ43J9soZft-32" value="IdentityService" style="rounded=1;whiteSpace=wrap;html=1;fillColor=#dae8fc;strokeColor=#6c8ebf;strokeWidth=2;verticalAlign=top;" vertex="1" parent="zBMRLFIllRJ43J9soZft-31">
          <mxGeometry width="181.72413793103448" height="104.54545454545455" as="geometry" />
        </mxCell>
        <mxCell id="zBMRLFIllRJ43J9soZft-33" value="" style="image;sketch=0;aspect=fixed;html=1;points=[];align=center;fontSize=12;image=img/lib/mscae/Docker.svg;" vertex="1" parent="zBMRLFIllRJ43J9soZft-31">
          <mxGeometry x="10.689655172413792" y="52.27272727272727" width="51.85676392572943" height="42.522546419098134" as="geometry" />
        </mxCell>
        <mxCell id="zBMRLFIllRJ43J9soZft-34" value="" style="group" vertex="1" connectable="0" parent="zBMRLFIllRJ43J9soZft-31">
          <mxGeometry x="227" y="-5.0000000000000036" width="80" height="120" as="geometry" />
        </mxCell>
        <mxCell id="zBMRLFIllRJ43J9soZft-35" value="" style="group" vertex="1" connectable="0" parent="zBMRLFIllRJ43J9soZft-34">
          <mxGeometry x="5" width="70" height="81" as="geometry" />
        </mxCell>
        <mxCell id="zBMRLFIllRJ43J9soZft-36" value="" style="image;html=1;image=img/lib/clip_art/computers/Database_128x128.png" vertex="1" parent="zBMRLFIllRJ43J9soZft-35">
          <mxGeometry width="50" height="60" as="geometry" />
        </mxCell>
        <mxCell id="zBMRLFIllRJ43J9soZft-37" value="" style="image;sketch=0;aspect=fixed;html=1;points=[];align=center;fontSize=12;image=img/lib/mscae/Docker.svg;" vertex="1" parent="zBMRLFIllRJ43J9soZft-35">
          <mxGeometry x="20" y="40" width="50" height="41" as="geometry" />
        </mxCell>
        <mxCell id="zBMRLFIllRJ43J9soZft-38" value="IdentityDb" style="text;html=1;align=center;verticalAlign=middle;resizable=0;points=[];autosize=1;strokeColor=none;fillColor=none;" vertex="1" parent="zBMRLFIllRJ43J9soZft-34">
          <mxGeometry y="90" width="80" height="30" as="geometry" />
        </mxCell>
        <mxCell id="zBMRLFIllRJ43J9soZft-39" value="" style="endArrow=classic;startArrow=classic;html=1;rounded=0;strokeWidth=2;" edge="1" parent="zBMRLFIllRJ43J9soZft-31" source="zBMRLFIllRJ43J9soZft-32" target="zBMRLFIllRJ43J9soZft-37">
          <mxGeometry width="50" height="50" relative="1" as="geometry">
            <mxPoint x="280" y="210" as="sourcePoint" />
            <mxPoint x="345" y="210" as="targetPoint" />
          </mxGeometry>
        </mxCell>
        <mxCell id="zBMRLFIllRJ43J9soZft-40" value="" style="group" vertex="1" connectable="0" parent="1">
          <mxGeometry x="487" y="410" width="363.45000000000005" height="140" as="geometry" />
        </mxCell>
        <mxCell id="zBMRLFIllRJ43J9soZft-41" value="user-net" style="rounded=1;whiteSpace=wrap;html=1;fillColor=#d5e8d4;strokeColor=#82b366;strokeWidth=2;verticalAlign=top;" vertex="1" parent="zBMRLFIllRJ43J9soZft-40">
          <mxGeometry width="363.45" height="140" as="geometry" />
        </mxCell>
        <mxCell id="zBMRLFIllRJ43J9soZft-42" value="" style="group" vertex="1" connectable="0" parent="zBMRLFIllRJ43J9soZft-40">
          <mxGeometry x="18" y="25" width="310" height="115" as="geometry" />
        </mxCell>
        <mxCell id="zBMRLFIllRJ43J9soZft-43" value="UserService" style="rounded=1;whiteSpace=wrap;html=1;fillColor=#dae8fc;strokeColor=#6c8ebf;strokeWidth=2;verticalAlign=top;" vertex="1" parent="zBMRLFIllRJ43J9soZft-42">
          <mxGeometry width="181.72413793103448" height="104.54545454545455" as="geometry" />
        </mxCell>
        <mxCell id="zBMRLFIllRJ43J9soZft-44" value="" style="image;sketch=0;aspect=fixed;html=1;points=[];align=center;fontSize=12;image=img/lib/mscae/Docker.svg;" vertex="1" parent="zBMRLFIllRJ43J9soZft-42">
          <mxGeometry x="10.689655172413792" y="52.27272727272727" width="51.85676392572943" height="42.522546419098134" as="geometry" />
        </mxCell>
        <mxCell id="zBMRLFIllRJ43J9soZft-45" value="" style="group" vertex="1" connectable="0" parent="zBMRLFIllRJ43J9soZft-42">
          <mxGeometry x="227" y="-5.0000000000000036" width="80" height="120" as="geometry" />
        </mxCell>
        <mxCell id="zBMRLFIllRJ43J9soZft-46" value="" style="group" vertex="1" connectable="0" parent="zBMRLFIllRJ43J9soZft-45">
          <mxGeometry x="5" width="70" height="81" as="geometry" />
        </mxCell>
        <mxCell id="zBMRLFIllRJ43J9soZft-47" value="" style="image;html=1;image=img/lib/clip_art/computers/Database_128x128.png" vertex="1" parent="zBMRLFIllRJ43J9soZft-46">
          <mxGeometry width="50" height="60" as="geometry" />
        </mxCell>
        <mxCell id="zBMRLFIllRJ43J9soZft-48" value="" style="image;sketch=0;aspect=fixed;html=1;points=[];align=center;fontSize=12;image=img/lib/mscae/Docker.svg;" vertex="1" parent="zBMRLFIllRJ43J9soZft-46">
          <mxGeometry x="20" y="40" width="50" height="41" as="geometry" />
        </mxCell>
        <mxCell id="zBMRLFIllRJ43J9soZft-49" value="UserDb" style="text;html=1;align=center;verticalAlign=middle;resizable=0;points=[];autosize=1;strokeColor=none;fillColor=none;" vertex="1" parent="zBMRLFIllRJ43J9soZft-45">
          <mxGeometry x="10" y="90" width="60" height="30" as="geometry" />
        </mxCell>
        <mxCell id="zBMRLFIllRJ43J9soZft-50" value="" style="endArrow=classic;startArrow=classic;html=1;rounded=0;strokeWidth=2;" edge="1" parent="zBMRLFIllRJ43J9soZft-42" source="zBMRLFIllRJ43J9soZft-43" target="zBMRLFIllRJ43J9soZft-48">
          <mxGeometry width="50" height="50" relative="1" as="geometry">
            <mxPoint x="280" y="210" as="sourcePoint" />
            <mxPoint x="345" y="210" as="targetPoint" />
          </mxGeometry>
        </mxCell>
        <mxCell id="wd65NpNhNlbv7quhVMK_-35" value="" style="endArrow=classic;startArrow=classic;html=1;rounded=0;strokeWidth=2;entryX=0;entryY=0.5;entryDx=0;entryDy=0;" parent="1" source="wd65NpNhNlbv7quhVMK_-1" target="wd65NpNhNlbv7quhVMK_-6" edge="1">
          <mxGeometry width="50" height="50" relative="1" as="geometry">
            <mxPoint x="400" y="410" as="sourcePoint" />
            <mxPoint x="450" y="360" as="targetPoint" />
          </mxGeometry>
        </mxCell>
        <mxCell id="wd65NpNhNlbv7quhVMK_-36" value="" style="endArrow=classic;startArrow=classic;html=1;rounded=0;strokeWidth=2;entryX=0;entryY=0.5;entryDx=0;entryDy=0;" parent="1" source="wd65NpNhNlbv7quhVMK_-1" target="zBMRLFIllRJ43J9soZft-10" edge="1">
          <mxGeometry width="50" height="50" relative="1" as="geometry">
            <mxPoint x="620" y="411" as="sourcePoint" />
            <mxPoint x="517" y="310.9880095923261" as="targetPoint" />
          </mxGeometry>
        </mxCell>
        <mxCell id="wd65NpNhNlbv7quhVMK_-37" value="" style="endArrow=classic;startArrow=classic;html=1;rounded=0;strokeWidth=2;entryX=0;entryY=0.5;entryDx=0;entryDy=0;" parent="1" source="wd65NpNhNlbv7quhVMK_-1" target="zBMRLFIllRJ43J9soZft-43" edge="1">
          <mxGeometry width="50" height="50" relative="1" as="geometry">
            <mxPoint x="590" y="451" as="sourcePoint" />
            <mxPoint x="280" y="550" as="targetPoint" />
          </mxGeometry>
        </mxCell>
        <mxCell id="wd65NpNhNlbv7quhVMK_-38" value="" style="endArrow=classic;startArrow=classic;html=1;rounded=0;strokeWidth=2;entryX=0;entryY=0.5;entryDx=0;entryDy=0;" parent="1" source="wd65NpNhNlbv7quhVMK_-1" target="zBMRLFIllRJ43J9soZft-32" edge="1">
          <mxGeometry width="50" height="50" relative="1" as="geometry">
            <mxPoint x="640" y="601" as="sourcePoint" />
            <mxPoint x="160" y="660" as="targetPoint" />
          </mxGeometry>
        </mxCell>
      </root>
    </mxGraphModel>
  </diagram>
</mxfile>
